<?xml version="1.0" encoding="UTF-8"?>
<svg id="Layer_1" data-name="Layer 1" xmlns="http://www.w3.org/2000/svg" viewBox="0 0 3448.64 2819.81">
  <defs>
    <style>
      .cls-1 {
        fill-rule: evenodd;
      }
    </style>
  </defs>
  <path class="cls-1" d="M1291.96,2819.81c-2.74,0-5.52-.12-8.29-.37C551.87,2753.11,0,2148.35,0,1412.7,0,633.74,633.72,0,1412.7,0c50.11,0,90.77,40.61,90.77,90.77s-40.66,90.75-90.77,90.75c-678.86,0-1231.16,552.31-1231.16,1231.17,0,641.1,480.87,1168.14,1118.52,1225.94,49.92,4.56,86.72,48.66,82.18,98.59-4.28,47.15-43.86,82.58-90.28,82.58h0ZM1594.25,2812.88c4.12,0,8.34-.25,12.47-.83,694.7-95.57,1218.57-697.13,1218.57-1399.35,0-626.09-419.8-1184.34-1020.84-1357.57-48.23-13.84-98.5,13.94-112.38,62.1-13.85,48.14,13.94,98.48,62.11,112.35,523.78,150.93,889.6,637.45,889.6,1183.13,0,611.98-456.43,1136.25-1061.78,1219.51-49.65,6.83-84.37,52.6-77.53,102.28,6.23,45.46,45.15,78.4,89.78,78.4Z"/>
  <path class="cls-1" d="M644.99,1784.29c-204.9,0-371.57-166.7-371.57-371.59s166.69-371.6,371.57-371.6,371.57,166.69,371.57,371.6-166.7,371.59-371.57,371.59h0ZM644.99,1222.62c-104.79,0-190.03,85.29-190.03,190.08s85.24,190.05,190.03,190.05,190.03-85.26,190.03-190.05-85.24-190.08-190.03-190.08Z"/>
  <path class="cls-1" d="M1412.67,1716.88c-167.73,0-304.21-136.45-304.21-304.18s136.46-304.21,304.21-304.21,304.18,136.46,304.18,304.21-136.48,304.18-304.18,304.18h0ZM1412.67,1290.01c-67.64,0-122.67,55.03-122.67,122.69s55.03,122.67,122.67,122.67,122.67-55.03,122.67-122.67-55.05-122.69-122.67-122.69Z"/>
  <path class="cls-1" d="M1412.67,1016.61c-204.9,0-371.57-166.7-371.57-371.59s166.69-371.56,371.57-371.56,371.56,166.69,371.56,371.56-166.7,371.59-371.56,371.59h0ZM1412.67,454.96c-104.79,0-190.05,85.26-190.05,190.03s85.26,190.05,190.05,190.05,190.05-85.26,190.05-190.05-85.26-190.03-190.05-190.03Z"/>
  <path class="cls-1" d="M2180.33,1784.29c-204.87,0-371.57-166.7-371.57-371.59s166.7-371.6,371.57-371.6,371.57,166.69,371.57,371.6-166.67,371.59-371.57,371.59h0ZM2180.33,1222.62c-104.77,0-190.03,85.29-190.03,190.08s85.26,190.05,190.03,190.05,190.03-85.26,190.03-190.05c.03-104.79-85.23-190.08-190.03-190.08Z"/>
  <path class="cls-1" d="M1412.67,2551.96c-204.9,0-371.57-166.7-371.57-371.63s166.69-371.54,371.57-371.54,371.56,166.67,371.56,371.54-166.7,371.63-371.56,371.63h0ZM1412.67,1990.33c-104.79,0-190.05,85.26-190.05,190.03s85.26,190.06,190.05,190.06,190.05-85.29,190.05-190.06-85.26-190.03-190.05-190.03Z"/>
  <path class="cls-1" d="M2963.18,2793.92h-1263.08c-50.17,0-90.77-40.6-90.77-90.74s40.6-90.8,90.77-90.8h1206.47l233.31-475.49c-165.35,75.9-391.33,140.26-642.9,101.79-49.52-7.57-83.57-53.86-76-103.42,7.54-49.52,53.8-83.57,103.39-76.03,414.6,63.25,761.12-218.44,775.65-230.48,33-27.27,80.49-27.79,114.07-1.29,33.55,26.53,44.09,72.86,25.27,111.24l-394.75,804.4c-15.24,31.12-46.85,50.82-81.44,50.82Z"/>
</svg>